<?xml version="1.0" encoding="UTF-8"?>
<!DOCTYPE svg PUBLIC "-//W3C//DTD SVG 1.1//EN" "http://www.w3.org/Graphics/SVG/1.1/DTD/svg11.dtd">
<svg width="267mm" height="128mm" viewBox="0 0 26700 12800" version="1.1" xmlns="http://www.w3.org/2000/svg" xmlns:xlink="http://www.w3.org/1999/xlink" stroke-width="28.222" stroke-linejoin="round" xml:space="preserve">
 <path fill="rgb(255,255,255)" stroke="none" d="M 13333,12803 L 0,12803 0,0 26665,0 26665,12803 13333,12803 Z"/>
 <path fill="none" stroke="rgb(179,179,179)" stroke-linejoin="round" d="M 12854,10919 L 2271,10919 2271,2566 23437,2566 23437,10919 12854,10919 Z"/>
 <path fill="none" stroke="rgb(179,179,179)" stroke-linejoin="round" d="M 23436,10918 L 2270,10918"/>
 <path fill="none" stroke="rgb(179,179,179)" stroke-linejoin="round" d="M 23436,9989 L 2270,9989"/>
 <path fill="none" stroke="rgb(179,179,179)" stroke-linejoin="round" d="M 23436,9061 L 2270,9061"/>
 <path fill="none" stroke="rgb(179,179,179)" stroke-linejoin="round" d="M 23436,8133 L 2270,8133"/>
 <path fill="none" stroke="rgb(179,179,179)" stroke-linejoin="round" d="M 23436,7205 L 2270,7205"/>
 <path fill="none" stroke="rgb(179,179,179)" stroke-linejoin="round" d="M 23436,6277 L 2270,6277"/>
 <path fill="none" stroke="rgb(179,179,179)" stroke-linejoin="round" d="M 23436,5349 L 2270,5349"/>
 <path fill="none" stroke="rgb(179,179,179)" stroke-linejoin="round" d="M 23436,4421 L 2270,4421"/>
 <path fill="none" stroke="rgb(179,179,179)" stroke-linejoin="round" d="M 23436,3493 L 2270,3493"/>
 <path fill="none" stroke="rgb(179,179,179)" stroke-linejoin="round" d="M 23436,2564 L 2270,2564"/>
 <path fill="none" stroke="rgb(179,179,179)" stroke-linejoin="round" d="M 2270,11068 L 2270,10918"/>
 <path fill="none" stroke="rgb(179,179,179)" stroke-linejoin="round" d="M 2270,11068 L 2270,10918"/>
 <path fill="none" stroke="rgb(179,179,179)" stroke-linejoin="round" d="M 4916,11068 L 4916,10918"/>
 <path fill="none" stroke="rgb(179,179,179)" stroke-linejoin="round" d="M 4916,11068 L 4916,10918"/>
 <path fill="none" stroke="rgb(179,179,179)" stroke-linejoin="round" d="M 7562,11068 L 7562,10918"/>
 <path fill="none" stroke="rgb(179,179,179)" stroke-linejoin="round" d="M 7562,11068 L 7562,10918"/>
 <path fill="none" stroke="rgb(179,179,179)" stroke-linejoin="round" d="M 10208,11068 L 10208,10918"/>
 <path fill="none" stroke="rgb(179,179,179)" stroke-linejoin="round" d="M 10208,11068 L 10208,10918"/>
 <path fill="none" stroke="rgb(179,179,179)" stroke-linejoin="round" d="M 12854,11068 L 12854,10918"/>
 <path fill="none" stroke="rgb(179,179,179)" stroke-linejoin="round" d="M 12854,11068 L 12854,10918"/>
 <path fill="none" stroke="rgb(179,179,179)" stroke-linejoin="round" d="M 15499,11068 L 15499,10918"/>
 <path fill="none" stroke="rgb(179,179,179)" stroke-linejoin="round" d="M 15499,11068 L 15499,10918"/>
 <path fill="none" stroke="rgb(179,179,179)" stroke-linejoin="round" d="M 18145,11068 L 18145,10918"/>
 <path fill="none" stroke="rgb(179,179,179)" stroke-linejoin="round" d="M 18145,11068 L 18145,10918"/>
 <path fill="none" stroke="rgb(179,179,179)" stroke-linejoin="round" d="M 20791,11068 L 20791,10918"/>
 <path fill="none" stroke="rgb(179,179,179)" stroke-linejoin="round" d="M 20791,11068 L 20791,10918"/>
 <path fill="none" stroke="rgb(179,179,179)" stroke-linejoin="round" d="M 23436,11068 L 23436,10918"/>
 <path fill="none" stroke="rgb(179,179,179)" stroke-linejoin="round" d="M 23436,11068 L 23436,10918"/>
 <path fill="none" stroke="rgb(179,179,179)" stroke-linejoin="round" d="M 2270,10918 L 23436,10918"/>
 <path fill="none" stroke="rgb(179,179,179)" stroke-linejoin="round" d="M 2120,10918 L 2270,10918"/>
 <path fill="none" stroke="rgb(179,179,179)" stroke-linejoin="round" d="M 2120,10918 L 2270,10918"/>
 <path fill="none" stroke="rgb(179,179,179)" stroke-linejoin="round" d="M 2120,9989 L 2270,9989"/>
 <path fill="none" stroke="rgb(179,179,179)" stroke-linejoin="round" d="M 2120,9989 L 2270,9989"/>
 <path fill="none" stroke="rgb(179,179,179)" stroke-linejoin="round" d="M 2120,9061 L 2270,9061"/>
 <path fill="none" stroke="rgb(179,179,179)" stroke-linejoin="round" d="M 2120,9061 L 2270,9061"/>
 <path fill="none" stroke="rgb(179,179,179)" stroke-linejoin="round" d="M 2120,8133 L 2270,8133"/>
 <path fill="none" stroke="rgb(179,179,179)" stroke-linejoin="round" d="M 2120,8133 L 2270,8133"/>
 <path fill="none" stroke="rgb(179,179,179)" stroke-linejoin="round" d="M 2120,7205 L 2270,7205"/>
 <path fill="none" stroke="rgb(179,179,179)" stroke-linejoin="round" d="M 2120,7205 L 2270,7205"/>
 <path fill="none" stroke="rgb(179,179,179)" stroke-linejoin="round" d="M 2120,6277 L 2270,6277"/>
 <path fill="none" stroke="rgb(179,179,179)" stroke-linejoin="round" d="M 2120,6277 L 2270,6277"/>
 <path fill="none" stroke="rgb(179,179,179)" stroke-linejoin="round" d="M 2120,5349 L 2270,5349"/>
 <path fill="none" stroke="rgb(179,179,179)" stroke-linejoin="round" d="M 2120,5349 L 2270,5349"/>
 <path fill="none" stroke="rgb(179,179,179)" stroke-linejoin="round" d="M 2120,4421 L 2270,4421"/>
 <path fill="none" stroke="rgb(179,179,179)" stroke-linejoin="round" d="M 2120,4421 L 2270,4421"/>
 <path fill="none" stroke="rgb(179,179,179)" stroke-linejoin="round" d="M 2120,3493 L 2270,3493"/>
 <path fill="none" stroke="rgb(179,179,179)" stroke-linejoin="round" d="M 2120,3493 L 2270,3493"/>
 <path fill="none" stroke="rgb(179,179,179)" stroke-linejoin="round" d="M 2120,2564 L 2270,2564"/>
 <path fill="none" stroke="rgb(179,179,179)" stroke-linejoin="round" d="M 2120,2564 L 2270,2564"/>
 <path fill="none" stroke="rgb(179,179,179)" stroke-linejoin="round" d="M 2270,10918 L 2270,2565"/>
 <path fill="none" stroke="rgb(255,211,32)" stroke-width="80" stroke-linejoin="round" d="M 3117,5925 L 3223,6629 3329,7260 3382,7548 3541,8318 3593,8551 3646,8769 3699,8978 3752,9177 3805,9367 3858,9548 3911,9720 3964,9887 4017,10040 4070,10064 4123,10087 4176,10110 4228,10129 4281,10152 4334,10170 4387,10189 4440,10207 4493,10221 4546,10235 4599,10254 4652,10268 4705,10277 4758,10291 4811,10300 4863,10314 4916,10323 4969,10333 5022,10342 5075,10347 5128,10356 5181,10361 5234,10365 5287,10370 5340,10374 5393,10379 5446,10384 5498,10384 5551,10388 5604,10388 5657,10388 5710,10388 5763,10388 5816,10388 5869,10388 5922,10384 5975,10384 6028,10379 6081,10379 6133,10374 6186,10370 6239,10365 6292,10361 6345,10356 6398,10351 6451,10347 6504,10337 6557,10333 6610,10323 6663,10319 6716,10310 6768,10300 6821,10291 6874,10282 6927,10272 6980,10268 7033,10254 7086,10245 7139,10235 7192,10226 7245,10212 7298,10203 7351,10189 7403,10180 7456,10166 7509,10156 7562,10142 7615,10129 7668,10115 7721,10105 7774,10091 7827,10077 7880,10064 7933,10050 7986,10031 8039,10017 8091,10003 8144,9989 8197,9975 8250,9957 8303,9943 8356,9924 8409,9910 8462,9892 8515,9878 8568,9859 8621,9845 8674,9827 8726,9808 8779,9790 8832,9776 8885,9757 8938,9739 8991,9720 9044,9702 9097,9683 9150,9664 9203,9646 9256,9627 9309,9609 9361,9590 9414,9572 9467,9553 9520,9530 9573,9511 9626,9493 9679,9474 9732,9451 9785,9432 9838,9409 9891,9391 9944,9372 9996,9349 10049,9330 10102,9307 10155,9288 10208,9265 10261,9242 10314,9223 10367,9200 10420,9182 10473,9159 10526,9135 10579,9117 10631,9094 10684,9070 10737,9047 10790,9024 10843,9005 10896,8982 10949,8959 11002,8936 11055,8913 11108,8889 11161,8866 11214,8843 11266,8820 11319,8797 11372,8773 11425,8750 11478,8727 11531,8704 11584,8680 11637,8657 11690,8634 11743,8611 11796,8588 11849,8564 11901,8541 11954,8518 12007,8490 12060,8467 12113,8444 12166,8421 12219,8393 12272,8370 12325,8346 12378,8323 12431,8295 12484,8272 12536,8249 12589,8221 12642,8198 12695,8175 12748,8147 12801,8124 12854,8100 12907,8072 12960,8049 13013,8021 13066,7998 13119,7975 13172,7947 13224,7924 13277,7896 13330,7873 13382,7845 13435,7822 13488,7794 13541,7771 13594,7743 13647,7720 13700,7692 13753,7669 13806,7641 13858,7613 13911,7590 13964,7562 14017,7539 14070,7511 14123,7483 14176,7460 14229,7432 14282,7409 14335,7381 14388,7353 14441,7325 14493,7302 14546,7274 14599,7246 14652,7223 14705,7195 14758,7167 14811,7144 14864,7116 14917,7089 14970,7061 15023,7038 15076,7010 15128,6982 15181,6954 15234,6931 15287,6903 15340,6875 15393,6847 15446,6819 15499,6796 15552,6768 15605,6740 15658,6713 15711,6685 15763,6657 15816,6629 15869,6606 15922,6578 15975,6550 16028,6522 16081,6495 16134,6467 16187,6439 16240,6416 16293,6389 16346,6361 16398,6333 16451,6305 16504,6277 16557,6250 16610,6222 16663,6194 16716,6166 16769,6138 16822,6115 16875,6087 16928,6059 16981,6031 17033,6004 17086,5976 17139,5948 17192,5920 17245,5892 17298,5864 17351,5836 17404,5809 17457,5781 17510,5753 17563,5725 17616,5697 17668,5669 17721,5642 17774,5614 17827,5586 17880,5558 17933,5530 17986,5502 18039,5474 18092,5447 18145,5419 18198,5391 18251,5363 18304,5335 18356,5307 18409,5280 18568,5196 18674,5140 18727,5112 18780,5080 18833,5052 18939,4996 19044,4941 19097,4913 19256,4829 19415,4746 19468,4718 19626,4630 19944,4463 19997,4435 20156,4347 20209,4319 20261,4291 20314,4263 20420,4207 20526,4152 20791,4008 20844,3980 20949,3924 21108,3836"/>
 <path fill="none" stroke="rgb(255,66,14)" stroke-width="80" stroke-linejoin="round" d="M 3117,5883 L 3223,6082 3329,6263 3382,6352 3541,6597 3593,6671 3646,6745 3699,6819 3752,6884 3805,6954 3858,7019 3911,7079 3964,7140 4017,7200 4070,7256 4123,7311 4176,7362 4228,7413 4281,7465 4334,7511 4387,7557 4440,7604 4493,7646 4546,7687 4599,7724 4652,7766 4705,7803 4758,7840 4811,7873 4863,7905 4916,7938 4969,7970 5022,7998 5075,8031 5128,8059 5181,8082 5234,8110 5287,8133 5340,8156 5393,8179 5446,8202 5498,8221 5551,8244 5604,8263 5657,8281 5710,8300 5763,8314 5816,8332 5869,8346 5922,8360 5975,8374 6028,8388 6081,8397 6133,8411 6186,8421 6239,8430 6292,8439 6345,8448 6398,8458 6451,8467 6504,8472 6557,8481 6610,8486 6663,8490 6716,8495 6768,8499 6821,8504 6874,8509 6927,8509 6980,8513 7033,8513 7086,8513 7139,8518 7192,8518 7245,8518 7298,8518 7351,8513 7403,8513 7456,8513 7509,8509 7562,8509 7615,8504 7668,8499 7721,8499 7774,8495 7827,8490 7880,8486 7933,8481 7986,8476 8039,8472 8091,8462 8144,8458 8197,8453 8250,8444 8303,8439 8356,8430 8409,8421 8462,8411 8515,8407 8568,8397 8621,8388 8674,8379 8726,8370 8779,8360 8832,8351 8885,8342 8938,8328 8991,8318 9044,8309 9097,8295 9150,8286 9203,8272 9256,8263 9309,8249 9361,8240 9414,8226 9467,8212 9520,8198 9573,8189 9626,8175 9679,8161 9732,8147 9785,8133 9838,8119 9891,8105 9944,8091 9996,8077 10049,8059 10102,8045 10155,8031 10208,8017 10261,7998 10314,7984 10367,7970 10420,7952 10473,7938 10526,7919 10579,7905 10631,7887 10684,7873 10737,7854 10790,7836 10843,7822 10896,7803 10949,7785 11002,7766 11055,7752 11108,7734 11161,7715 11214,7697 11266,7678 11319,7659 11372,7641 11425,7622 11478,7604 11531,7585 11584,7567 11637,7548 11690,7529 11743,7511 11796,7492 11849,7469 11901,7451 11954,7432 12007,7413 12060,7390 12113,7372 12166,7353 12219,7330 12272,7311 12325,7293 12378,7270 12431,7251 12484,7228 12536,7209 12589,7186 12642,7167 12695,7144 12748,7126 12801,7103 12854,7084 12907,7061 12960,7038 13013,7019 13066,6996 13119,6973 13172,6954 13224,6931 13277,6908 13330,6889 13382,6866 13435,6843 13488,6819 13541,6801 13594,6778 13647,6754 13700,6731 13753,6708 13806,6685 13858,6662 13911,6643 13964,6620 14017,6597 14070,6573 14123,6550 14176,6527 14229,6504 14282,6481 14335,6457 14388,6434 14441,6411 14493,6389 14546,6366 14599,6342 14652,6319 14705,6296 14758,6268 14811,6245 14864,6222 14917,6198 14970,6175 15023,6152 15076,6129 15128,6101 15181,6078 15234,6055 15287,6031 15340,6008 15393,5980 15446,5957 15499,5934 15552,5911 15605,5883 15658,5860 15711,5836 15763,5813 15816,5785 15869,5762 15922,5739 15975,5711 16028,5688 16081,5665 16134,5637 16187,5614 16240,5591 16293,5563 16346,5539 16398,5516 16451,5502 16504,5488 16557,5474 16610,5461 16663,5442 16716,5428 16769,5414 16822,5400 16875,5382 16928,5368 16981,5354 17033,5335 17086,5321 17139,5303 17192,5289 17245,5270 17298,5256 17351,5238 17404,5224 17457,5205 17510,5191 17563,5173 17616,5154 17668,5140 17721,5122 17774,5103 17827,5085 17880,5071 17933,5052 17986,5034 18039,5015 18092,4996 18145,4978 18198,4959 18251,4941 18304,4922 18356,4904 18409,4885 18568,4829 18674,4792 18727,4774 18780,4755 18833,4737 18939,4695 19044,4658 19097,4639 19256,4579 19415,4518 19468,4495 19626,4435 19944,4310 19997,4291 20156,4226 20209,4207 20261,4184 20314,4161 20420,4119 20526,4078 20791,3966 20844,3948 20949,3901 21108,3836"/>
 <path fill="none" stroke="rgb(0,69,134)" stroke-width="80" stroke-linejoin="round" d="M 3117,5925 L 3223,6629 3329,7260 3382,7548 3541,8300 3593,8351 3646,8402 3699,8453 3752,8499 3805,8546 3858,8588 3911,8629 3964,8671 4017,8713 4070,8750 4123,8787 4176,8820 4228,8852 4281,8885 4334,8917 4387,8950 4440,8978 4493,9005 4546,9033 4599,9056 4652,9080 4705,9107 4758,9131 4811,9149 4863,9172 4916,9191 4969,9210 5022,9228 5075,9242 5128,9261 5181,9275 5234,9288 5287,9302 5340,9316 5393,9330 5446,9340 5498,9353 5551,9363 5604,9372 5657,9381 5710,9386 5763,9395 5816,9404 5869,9409 5922,9414 5975,9418 6028,9423 6081,9428 6133,9432 6186,9432 6239,9437 6292,9437 6345,9442 6398,9442 6451,9442 6504,9442 6557,9442 6610,9437 6663,9437 6716,9437 6768,9432 6821,9432 6874,9428 6927,9423 6980,9418 7033,9414 7086,9409 7139,9404 7192,9400 7245,9395 7298,9386 7351,9381 7403,9377 7456,9367 7509,9358 7562,9353 7615,9344 7668,9335 7721,9326 7774,9316 7827,9307 7880,9298 7933,9288 7986,9279 8039,9270 8091,9256 8144,9247 8197,9233 8250,9223 8303,9210 8356,9200 8409,9186 8462,9172 8515,9163 8568,9149 8621,9135 8674,9121 8726,9107 8779,9094 8832,9080 8885,9066 8938,9052 8991,9038 9044,9019 9097,9005 9150,8991 9203,8978 9256,8959 9309,8945 9361,8926 9414,8913 9467,8894 9520,8880 9573,8861 9626,8848 9679,8829 9732,8810 9785,8797 9838,8778 9891,8759 9944,8741 9996,8722 10049,8704 10102,8690 10155,8667 10208,8653 10261,8634 10314,8611 10367,8592 10420,8574 10473,8555 10526,8537 10579,8518 10631,8499 10684,8476 10737,8458 10790,8439 10843,8421 10896,8397 10949,8379 11002,8356 11055,8337 11108,8318 11161,8295 11214,8277 11266,8254 11319,8235 11372,8212 11425,8193 11478,8170 11531,8151 11584,8128 11637,8105 11690,8086 11743,8063 11796,8040 11849,8021 11901,7998 11954,7975 12007,7952 12060,7933 12113,7910 12166,7887 12219,7864 12272,7840 12325,7817 12378,7799 12431,7771 12484,7752 12536,7729 12589,7706 12642,7683 12695,7659 12748,7636 12801,7613 12854,7590 12907,7567 12960,7543 13013,7520 13066,7492 13119,7469 13172,7446 13224,7423 13277,7400 13330,7376 13382,7353 13435,7325 13488,7302 13541,7279 13594,7256 13647,7232 13700,7205 13753,7181 13806,7158 13858,7135 13911,7107 13964,7084 14017,7061 14070,7033 14123,7010 14176,6986 14229,6959 14282,6935 14335,6912 14388,6884 14441,6861 14493,6833 14546,6810 14599,6787 14652,6759 14705,6736 14758,6708 14811,6685 14864,6657 14917,6634 14970,6606 15023,6583 15076,6555 15128,6532 15181,6504 15234,6481 15287,6453 15340,6430 15393,6402 15446,6379 15499,6352 15552,6324 15605,6301 15658,6273 15711,6250 15763,6222 15816,6198 15869,6171 15922,6143 15975,6120 16028,6092 16081,6064 16134,6041 16187,6013 16240,5985 16293,5962 16346,5934 16398,5906 16451,5883 16504,5855 16557,5827 16610,5804 16663,5776 16716,5748 16769,5720 16822,5697 16875,5669 16928,5642 16981,5618 17033,5591 17086,5563 17139,5535 17192,5512 17245,5484 17298,5456 17351,5428 17404,5400 17457,5377 17510,5349 17563,5321 17616,5293 17668,5266 17721,5242 17774,5215 17827,5187 17880,5159 17933,5131 17986,5103 18039,5080 18092,5052 18145,5024 18198,4996 18251,4969 18304,4941 18356,4918 18409,4890 18568,4829 18674,4792 18727,4774 18780,4755 18833,4737 18939,4695 19044,4658 19097,4639 19256,4579 19415,4518 19468,4495 19626,4435 19944,4310 19997,4291 20156,4226 20209,4207 20261,4184 20314,4161 20420,4119 20526,4078 20791,3966 20844,3948 20949,3901 21108,3836"/>
 <text class="TextShape"><tspan class="TextParagraph" font-family="Liberation Sans, sans-serif" font-size="353px" font-weight="400"><tspan class="TextPosition" x="2032" y="11486"><tspan fill="rgb(0,0,0)" stroke="none">1.5</tspan></tspan></tspan></text>
 <text class="TextShape"><tspan class="TextParagraph" font-family="Liberation Sans, sans-serif" font-size="353px" font-weight="400"><tspan class="TextPosition" x="4823" y="11486"><tspan fill="rgb(0,0,0)" stroke="none">2</tspan></tspan></tspan></text>
 <text class="TextShape"><tspan class="TextParagraph" font-family="Liberation Sans, sans-serif" font-size="353px" font-weight="400"><tspan class="TextPosition" x="7324" y="11486"><tspan fill="rgb(0,0,0)" stroke="none">2.5</tspan></tspan></tspan></text>
 <text class="TextShape"><tspan class="TextParagraph" font-family="Liberation Sans, sans-serif" font-size="353px" font-weight="400"><tspan class="TextPosition" x="10115" y="11486"><tspan fill="rgb(0,0,0)" stroke="none">3</tspan></tspan></tspan></text>
 <text class="TextShape"><tspan class="TextParagraph" font-family="Liberation Sans, sans-serif" font-size="353px" font-weight="400"><tspan class="TextPosition" x="12616" y="11486"><tspan fill="rgb(0,0,0)" stroke="none">3.5</tspan></tspan></tspan></text>
 <text class="TextShape"><tspan class="TextParagraph" font-family="Liberation Sans, sans-serif" font-size="353px" font-weight="400"><tspan class="TextPosition" x="15407" y="11486"><tspan fill="rgb(0,0,0)" stroke="none">4</tspan></tspan></tspan></text>
 <text class="TextShape"><tspan class="TextParagraph" font-family="Liberation Sans, sans-serif" font-size="353px" font-weight="400"><tspan class="TextPosition" x="17908" y="11486"><tspan fill="rgb(0,0,0)" stroke="none">4.5</tspan></tspan></tspan></text>
 <text class="TextShape"><tspan class="TextParagraph" font-family="Liberation Sans, sans-serif" font-size="353px" font-weight="400"><tspan class="TextPosition" x="20699" y="11486"><tspan fill="rgb(0,0,0)" stroke="none">5</tspan></tspan></tspan></text>
 <text class="TextShape"><tspan class="TextParagraph" font-family="Liberation Sans, sans-serif" font-size="353px" font-weight="400"><tspan class="TextPosition" x="23199" y="11486"><tspan fill="rgb(0,0,0)" stroke="none">5.5</tspan></tspan></tspan></text>
 <text class="TextShape"><tspan class="TextParagraph" font-family="Liberation Sans, sans-serif" font-size="353px" font-weight="400"><tspan class="TextPosition" x="1835" y="11039"><tspan fill="rgb(0,0,0)" stroke="none">8</tspan></tspan></tspan></text>
 <text class="TextShape"><tspan class="TextParagraph" font-family="Liberation Sans, sans-serif" font-size="353px" font-weight="400"><tspan class="TextPosition" x="1544" y="10110"><tspan fill="rgb(0,0,0)" stroke="none">8.2</tspan></tspan></tspan></text>
 <text class="TextShape"><tspan class="TextParagraph" font-family="Liberation Sans, sans-serif" font-size="353px" font-weight="400"><tspan class="TextPosition" x="1544" y="9182"><tspan fill="rgb(0,0,0)" stroke="none">8.4</tspan></tspan></tspan></text>
 <text class="TextShape"><tspan class="TextParagraph" font-family="Liberation Sans, sans-serif" font-size="353px" font-weight="400"><tspan class="TextPosition" x="1544" y="8254"><tspan fill="rgb(0,0,0)" stroke="none">8.6</tspan></tspan></tspan></text>
 <text class="TextShape"><tspan class="TextParagraph" font-family="Liberation Sans, sans-serif" font-size="353px" font-weight="400"><tspan class="TextPosition" x="1544" y="7326"><tspan fill="rgb(0,0,0)" stroke="none">8.8</tspan></tspan></tspan></text>
 <text class="TextShape"><tspan class="TextParagraph" font-family="Liberation Sans, sans-serif" font-size="353px" font-weight="400"><tspan class="TextPosition" x="1835" y="6397"><tspan fill="rgb(0,0,0)" stroke="none">9</tspan></tspan></tspan></text>
 <text class="TextShape"><tspan class="TextParagraph" font-family="Liberation Sans, sans-serif" font-size="353px" font-weight="400"><tspan class="TextPosition" x="1544" y="5469"><tspan fill="rgb(0,0,0)" stroke="none">9.2</tspan></tspan></tspan></text>
 <text class="TextShape"><tspan class="TextParagraph" font-family="Liberation Sans, sans-serif" font-size="353px" font-weight="400"><tspan class="TextPosition" x="1544" y="4541"><tspan fill="rgb(0,0,0)" stroke="none">9.4</tspan></tspan></tspan></text>
 <text class="TextShape"><tspan class="TextParagraph" font-family="Liberation Sans, sans-serif" font-size="353px" font-weight="400"><tspan class="TextPosition" x="1544" y="3613"><tspan fill="rgb(0,0,0)" stroke="none">9.6</tspan></tspan></tspan></text>
 <text class="TextShape"><tspan class="TextParagraph" font-family="Liberation Sans, sans-serif" font-size="353px" font-weight="400"><tspan class="TextPosition" x="1544" y="2684"><tspan fill="rgb(0,0,0)" stroke="none">9.8</tspan></tspan></tspan></text>
 <text class="TextShape"><tspan class="TextParagraph" font-family="Liberation Sans, sans-serif" font-size="459px" font-weight="400"><tspan class="TextPosition" x="10330" y="927"><tspan fill="rgb(0,0,0)" stroke="none">Power Cell Velocity vs. Range</tspan></tspan></tspan></text>
 <text class="TextShape"><tspan class="TextParagraph" font-family="Liberation Sans, sans-serif" font-size="388px" font-weight="400"><tspan class="TextPosition" x="11904" y="1913"><tspan fill="rgb(0,0,0)" stroke="none">45° launch angle</tspan></tspan></tspan></text>
 <path fill="none" stroke="rgb(0,69,134)" stroke-width="80" stroke-linejoin="round" d="M 24326,5903 L 25126,5903"/>
 <path fill="none" stroke="rgb(255,66,14)" stroke-width="80" stroke-linejoin="round" d="M 24326,6401 L 25126,6401"/>
 <path fill="none" stroke="rgb(255,211,32)" stroke-width="80" stroke-linejoin="round" d="M 24326,6898 L 25126,6898"/>
 <text class="TextShape"><tspan class="TextParagraph" font-family="Liberation Sans, sans-serif" font-size="353px" font-weight="400"><tspan class="TextPosition" x="25226" y="6023"><tspan fill="rgb(0,0,0)" stroke="none">optimal</tspan></tspan></tspan></text>
 <text class="TextShape"><tspan class="TextParagraph" font-family="Liberation Sans, sans-serif" font-size="353px" font-weight="400"><tspan class="TextPosition" x="25226" y="6520"><tspan fill="rgb(0,0,0)" stroke="none">high</tspan></tspan></tspan></text>
 <text class="TextShape"><tspan class="TextParagraph" font-family="Liberation Sans, sans-serif" font-size="353px" font-weight="400"><tspan class="TextPosition" x="25226" y="7018"><tspan fill="rgb(0,0,0)" stroke="none">low</tspan></tspan></tspan></text>
 <text class="TextShape"><tspan class="TextParagraph" font-family="Liberation Sans, sans-serif" font-size="318px" font-weight="400"><tspan class="TextPosition" x="11843" y="12209"><tspan fill="rgb(0,0,0)" stroke="none">Range (m)</tspan></tspan></tspan></text>
 <text class="TextShape" transform="rotate(-90 837 7931)"><tspan class="TextParagraph" font-family="Liberation Sans, sans-serif" font-size="318px" font-weight="400"><tspan class="TextPosition" x="837" y="7931"><tspan fill="rgb(0,0,0)" stroke="none">Velocity (m/s)</tspan></tspan></tspan></text>
 <text class="TextShape"><tspan class="TextParagraph" font-family="Liberation Serif, serif" font-size="423px" font-weight="400"><tspan class="TextPosition" x="2474" y="10757"><tspan fill="rgb(0,0,0)" stroke="none">Lower collision</tspan></tspan></tspan></text>
 <path fill="none" stroke="rgb(52,101,164)" stroke-linejoin="round" d="M 2777,9914 L 3182,8934"/>
 <path fill="rgb(52,101,164)" stroke="none" d="M 3354,8518 L 3043,8877 3321,8991 3354,8518 Z"/>
 <text class="TextShape"><tspan class="TextParagraph" font-family="Liberation Serif, serif" font-size="423px" font-weight="400"><tspan class="TextPosition" x="16384" y="3121"><tspan fill="rgb(0,0,0)" stroke="none">Upper collision</tspan></tspan></tspan></text>
 <path fill="none" stroke="rgb(52,101,164)" stroke-linejoin="round" d="M 17703,3313 L 18130,4305"/>
 <path fill="rgb(52,101,164)" stroke="none" d="M 18308,4719 L 18268,4246 17993,4365 18308,4719 Z"/>
</svg>